# xmcd
#
# Track frame offsets:
#	150
#	12731
#	24660
#	43947
#	53166
#	65046
#	74856
#	83667
#	92245
#	100109
#	113810
#	122063
#	138144
#	149172
#	157365
#	169891
#	190032
#	200988
#
# Disc length: 2861 seconds
#
# Revision: 1
# Processed by: cddbd v1.5.2PL0 Copyright (c) Steve Scherf et al.
# Submitted via: EZCDAudioConverter 7.1.4.1
#
DISCID=1e0b2b12
DTITLE=Jon Rauhouse - Steel Guitar Heart Attack
DYEAR=2007
DGENRE=CountrySteelguitar
TTITLE0=Jon Rauhouse - Idaho
TTITLE1=Jon Rauhouse - Bongo Ride
TTITLE2=Jon Rauhouse with Sally Tims (vocal) - I'll Be Seeing You
TTITLE3=Jon Rauhouse - 5 After 5
TTITLE4=Jon Rauhouse - Drinkin' and Smokin'
TTITLE5=Jon Rauhouse - Harbor Lights
TTITLE6=Jon Rauhouse - Mannix
TTITLE7=Jon Rauhouse - Grief
TTITLE8=Jon Rauhouse - Everybody Loves the Sun
TTITLE9=Jon Rauhouse - Ballad of the Black Chihuahua
TTITLE10=Jon Rauhouse with Neko Case (vocal) - East of the Sun (And West of th
TTITLE10=e Moon)
TTITLE11=Jon Rauhouse - Begin the Beguine
TTITLE12=Jon Rauhouse - Holiday for Strings
TTITLE13=Jon Rauhouse - Hood Canal
TTITLE14=Jon Rauhouse - Girls of Pajama Hill
TTITLE15=Jon Rauhouse - Big Iron
TTITLE16=Jon Rauhouse - Red Pollard
TTITLE17=Jon Rauhouse - The Fishin' Hole
EXTD=
EXTT0=
EXTT1=
EXTT2=
EXTT3=
EXTT4=
EXTT5=
EXTT6=
EXTT7=
EXTT8=
EXTT9=
EXTT10=
EXTT11=
EXTT12=
EXTT13=
EXTT14=
EXTT15=
EXTT16=
EXTT17=
PLAYORDER=
